# xmcd
#
# Track frame offsets:
#	150
#	23303
#	41834
#	58971
#	77286
#	95392
#	109046
#	128214
#	148517
#	172070
#	196489
#	210563
#	232093
#	257566
#
# Disc length: 3698 seconds
# Revision: 0
# Processed by: cddbd v1.5.2PL0 Copyright (c) Steve Scherf et al.
# Submitted via: dBpowerAMP V12.0
#
DISCID=bd0e700e
DTITLE=Frank Solivan - Family, Friends and Heroes
DYEAR=2016
DGENRE=Country
TTITLE0=Pretty Woman
TTITLE1=Mask, Snorkel and Fins
TTITLE2=The Fishin' Song
TTITLE3=I am a Rambler
TTITLE4=Cazenovia Casanova
TTITLE5=Mexico
TTITLE6=Dark Hollow
TTITLE7=You Don't Write
TTITLE8=Put Me in Your Pocket
TTITLE9=I Still Miss Someone
TTITLE10=When the Leaves Turn Brown
TTITLE11=Leaving on a Jet Plane
TTITLE12=Wayfaring Stranger
TTITLE13=Are You Missing Me
EXTD=
EXTT0=
EXTT1=
EXTT2=
EXTT3=
EXTT4=
EXTT5=
EXTT6=
EXTT7=
EXTT8=
EXTT9=
EXTT10=
EXTT11=
EXTT12=
EXTT13=
PLAYORDER=
